Land_normalized_precision_landing01_filtered_grf
version=1
nRows=17
nColumns=37
inDegrees=yes
endheader
time		1_ground_force_vx		1_ground_force_vy		1_ground_force_vz		1_ground_force_px		1_ground_force_py		1_ground_force_pz		1_ground_torque_x		1_ground_torque_y		1_ground_torque_z		2_ground_force_vx		2_ground_force_vy		2_ground_force_vz		2_ground_force_px		2_ground_force_py		2_ground_force_pz		2_ground_torque_x		2_ground_torque_y		2_ground_torque_z		3_ground_force_vx		3_ground_force_vy		3_ground_force_vz		3_ground_force_px		3_ground_force_py		3_ground_force_pz		3_ground_torque_x		3_ground_torque_y		3_ground_torque_z		4_ground_force_vx		4_ground_force_vy		4_ground_force_vz		4_ground_force_px		4_ground_force_py		4_ground_force_pz		4_ground_torque_x		4_ground_torque_y		4_ground_torque_z		
1.010333		-29.068891		740.312345		147.813334		0.071384		0.000000		0.254788		-0.659443		16.794373		3.353222		44.085194		941.219827		110.078401		-0.164970		0.000000		0.272404		0.954627		20.381293		2.383652		9.858774		-1.666296		-5.096466		0.380921		1.275646		1.883378		-0.002157		0.000364		0.001115		-5.126857		-0.475953		-0.823581		-0.351551		1.268433		1.872841		0.014817		0.001376		0.002380		
1.013263		-29.954831		732.943280		143.818808		0.071878		0.000000		0.255250		-0.680791		16.657800		3.268609		43.224519		934.655652		109.794546		-0.165278		0.000000		0.272534		0.934343		20.203572		2.373325		9.895147		-1.572568		-5.014624		0.380934		1.275651		1.883404		-0.004879		0.000775		0.002473		-5.061871		-0.508551		-0.830262		-0.351546		1.268431		1.872871		0.015693		0.001576		0.002574		
1.016192		-31.135114		724.528141		139.771299		0.072379		0.000000		0.255595		-0.706534		16.441384		3.171767		42.806037		926.531493		109.159727		-0.165643		0.000000		0.272667		0.925060		20.022814		2.358997		9.903607		-1.492639		-4.947347		0.380945		1.275656		1.883426		-0.007860		0.001184		0.003927		-4.978825		-0.521000		-0.781935		-0.351545		1.268427		1.872891		0.023079		-0.014093		-0.022388		
1.019121		-32.471292		715.021752		135.786087		0.072848		0.000000		0.255776		-0.732540		16.130649		3.063290		42.910622		916.881069		108.605827		-0.166085		0.000000		0.272763		0.931743		19.908757		2.358221		9.877000		-1.445118		-4.920051		0.380953		1.275662		1.883441		-0.010719		0.001568		0.005340		-4.902818		-0.502511		-0.688565		-0.351547		1.268422		1.872901		0.025171		-0.013306		-0.020728		
1.022051		-33.752432		704.519020		131.935236		0.073249		0.000000		0.255795		-0.755506		15.769777		2.953206		43.487116		905.852770		108.463832		-0.166610		0.000000		0.272791		0.955445		19.902253		2.383031		9.812559		-1.441505		-4.939961		0.380959		1.275669		1.883450		-0.012939		0.001901		0.006514		-4.854644		-0.454339		-0.568987		-0.351551		1.268417		1.872901		0.027893		-0.012474		-0.019489		
1.024980		-34.763878		693.301493		128.224133		0.073570		0.000000		0.255711		-0.773358		15.423208		2.852479		44.344500		893.722975		108.749763		-0.167194		0.000000		0.272757		0.991592		19.984609		2.431763		9.715046		-1.481321		-4.994157		0.380961		1.275676		1.883452		-0.014063		0.002145		0.007229		-4.842266		-0.391022		-0.450640		-0.351557		1.268414		1.872891		0.030679		-0.011961		-0.018468		
1.027909		-35.351948		681.806754		124.608155		0.073821		0.000000		0.255610		-0.784416		15.128460		2.764903		45.248271		880.865732		109.167492		-0.167803		0.000000		0.272700		1.031927		20.088872		2.489659		9.596781		-1.550133		-5.054739		0.380962		1.275681		1.883445		-0.013956		0.002254		0.007350		-4.858006		-0.335281		-0.364609		-0.351562		1.268409		1.872872		0.032789		-0.012430		-0.017514		
1.030838		-35.422790		670.530577		121.052172		0.074031		0.000000		0.255580		-0.787366		14.904327		2.690706		46.042008		867.681963		109.324739		-0.168406		0.000000		0.272668		1.068888		20.143609		2.538024		9.474703		-1.622320		-5.089370		0.380963		1.275684		1.883434		-0.012931		0.002214		0.006946		-4.883527		-0.308588		-0.334235		-0.351566		1.268403		1.872846		0.033658		-0.014391		-0.016732		
1.033768		-34.909188		659.888602		117.574123		0.074223		0.000000		0.255667		-0.781650		14.775555		2.632598		46.704171		854.515490		108.995422		-0.168990		0.000000		0.272697		1.099431		20.115507		2.565782		9.369415		-1.668466		-5.073600		0.380965		1.275684		1.883417		-0.011605		0.002066		0.006284		-4.900771		-0.322341		-0.365671		-0.351570		1.268394		1.872817		0.033127		-0.017820		-0.016442		
1.036697		-33.789479		650.101842		114.232915		0.074399		0.000000		0.255857		-0.766952		14.756017		2.592856		47.314171		841.607138		108.239130		-0.169564		0.000000		0.272783		1.125605		20.021805		2.575006		9.305511		-1.666207		-5.000420		0.380968		1.275680		1.883398		-0.010606		0.001899		0.005700		-4.901272		-0.372509		-0.444498		-0.351574		1.268383		1.872788		0.031481		-0.022095		-0.016945		
1.039626		-32.132858		641.137620		111.083601		0.074538		0.000000		0.256067		-0.742640		14.817762		2.567324		47.962812		829.080488		107.313519		-0.170141		0.000000		0.272899		1.151712		19.908345		2.576873		9.307358		-1.611001		-4.883658		0.380970		1.275671		1.883376		-0.010316		0.001786		0.005413		-4.887768		-0.439590		-0.539990		-0.351578		1.268374		1.872762		0.029284		-0.026250		-0.018267		
1.042556		-30.094440		632.743959		108.155362		0.074603		0.000000		0.256190		-0.708957		14.906078		2.547904		48.664847		816.948925		106.459743		-0.170729		0.000000		0.273003		1.180130		19.811111		2.581662		9.390053		-1.519765		-4.754083		0.380970		1.275661		1.883350		-0.010806		0.001749		0.005471		-4.868916		-0.494131		-0.615343		-0.351583		1.268370		1.872738		0.027159		-0.029326		-0.020074		
1.045485		-27.846120		624.556387		105.456466		0.074561		0.000000		0.256147		-0.668133		14.985483		2.530302		49.324704		805.145066		105.722166		-0.171306		0.000000		0.273069		1.208590		19.728257		2.590483		9.551836		-1.422949		-4.648631		0.380966		1.275649		1.883320		-0.011934		0.001778		0.005808		-4.852929		-0.507032		-0.640850		-0.351589		1.268377		1.872715		0.025621		-0.030667		-0.021802		
1.048414		-25.516257		616.227895		102.978505		0.074396		0.000000		0.255920		-0.623299		15.053004		2.515522		49.777872		793.582464		104.917969		-0.171834		0.000000		0.273097		1.230676		19.620006		2.593922		9.772264		-1.349683		-4.595876		0.380957		1.275637		1.883287		-0.013421		0.001853		0.006311		-4.843290		-0.462229		-0.605295		-0.351596		1.268392		1.872692		0.024981		-0.030180		-0.022935		
1.051343		-23.190294		607.534318		100.680560		0.074124		0.000000		0.255557		-0.576749		15.109692		2.503975		49.891529		782.231560		103.764256		-0.172278		0.000000		0.273111		1.239615		19.435484		2.578148		10.016375		-1.315115		-4.604811		0.380947		1.275629		1.883249		-0.014867		0.001952		0.006835		-4.836217		-0.366342		-0.520498		-0.351603		1.268416		1.872669		0.025246		-0.028480		-0.023281		
1.054273		-20.938138		598.422938		98.488588		0.073792		0.000000		0.255141		-0.529931		15.145862		2.492708		49.653467		771.165937		102.063060		-0.172628		0.000000		0.273145		1.232788		19.146378		2.534005		10.243093		-1.318017		-4.663829		0.380933		1.275622		1.883210		-0.015841		0.002039		0.007213		-4.821533		-0.246873		-0.415700		-0.351609		1.268442		1.872648		0.026137		-0.026680		-0.023040		
1.057202		-18.813535		589.001684		96.323751		0.073461		0.000000		0.254761		-0.484145		15.157443		2.478806		49.194497		760.551243		99.831068		-0.172907		0.000000		0.273222		1.213902		18.767037		2.463390		10.411592		-1.347567		-4.747951		0.380919		1.275618		1.883171		-0.016037		0.002075		0.007314		-4.788120		-0.140917		-0.325273		-0.351613		1.268463		1.872631		0.027254		-0.025890		-0.022632		
